# MagicaVoxel @ Ephtracy

# group
o 

# material
mtllib champagne.mtl
usemtl palette

# normals
vn -1 0 0
vn 1 0 0
vn 0 0 1
vn 0 0 -1
vn 0 -1 0
vn 0 1 0

# texcoords
vt 0.767578 0.5
vt 0.904297 0.5
vt 0.943359 0.5
vt 0.951172 0.5
vt 0.966797 0.5

# verts
v -0.3 -0.6 0.1
v -0.3 -0.6 -0.1
v -0.3 -0.3 0.1
v -0.3 -0.3 -0.1
v -0.3 -5.96046e-008 0.1
v -0.3 -5.96046e-008 -0.1
v -0.3 0.1 0.1
v -0.3 0.1 -0.1
v -0.3 0.2 0.1
v -0.3 0.2 -0.1
v -0.2 -0.6 0.2
v -0.2 -0.6 0.1
v -0.2 -0.6 -0.1
v -0.2 -0.6 -0.2
v -0.2 -0.3 0.2
v -0.2 -0.3 0.1
v -0.2 -0.3 -0.1
v -0.2 -0.3 -0.2
v -0.2 -5.96046e-008 0.2
v -0.2 -5.96046e-008 0.1
v -0.2 -5.96046e-008 -0.1
v -0.2 -5.96046e-008 -0.2
v -0.2 0.1 0.2
v -0.2 0.1 0.1
v -0.2 0.1 -0.1
v -0.2 0.1 -0.2
v -0.2 0.2 0.2
v -0.2 0.2 0.1
v -0.2 0.2 -0.1
v -0.2 0.2 -0.2
v -0.2 0.4 0.1
v -0.2 0.4 -0.1
v -0.1 -0.6 0.3
v -0.1 -0.6 0.2
v -0.1 -0.6 -0.2
v -0.1 -0.6 -0.3
v -0.1 -0.3 0.3
v -0.1 -0.3 0.2
v -0.1 -0.3 -0.2
v -0.1 -0.3 -0.3
v -0.1 -5.96046e-008 0.3
v -0.1 -5.96046e-008 0.2
v -0.1 -5.96046e-008 -0.2
v -0.1 -5.96046e-008 -0.3
v -0.1 0.1 0.3
v -0.1 0.1 0.2
v -0.1 0.1 -0.2
v -0.1 0.1 -0.3
v -0.1 0.2 0.3
v -0.1 0.2 0.2
v -0.1 0.2 0.1
v -0.1 0.2 -0.1
v -0.1 0.2 -0.2
v -0.1 0.2 -0.3
v -0.1 0.4 0.2
v -0.1 0.4 0.1
v -0.1 0.4 -0.1
v -0.1 0.4 -0.2
v -0.1 0.7 0.1
v -0.1 0.7 -0.1
v -0.1 0.8 0.1
v -0.1 0.8 -0.1
v -0.1 0.9 0.1
v -0.1 0.9 -0.1
v 0.1 -0.6 0.3
v 0.1 -0.6 0.2
v 0.1 -0.6 -0.2
v 0.1 -0.6 -0.3
v 0.1 -0.3 0.3
v 0.1 -0.3 0.2
v 0.1 -0.3 -0.2
v 0.1 -0.3 -0.3
v 0.1 -5.96046e-008 0.3
v 0.1 -5.96046e-008 0.2
v 0.1 -5.96046e-008 -0.2
v 0.1 -5.96046e-008 -0.3
v 0.1 0.1 0.3
v 0.1 0.1 0.2
v 0.1 0.1 -0.2
v 0.1 0.1 -0.3
v 0.1 0.2 0.3
v 0.1 0.2 0.2
v 0.1 0.2 0.1
v 0.1 0.2 -0.1
v 0.1 0.2 -0.2
v 0.1 0.2 -0.3
v 0.1 0.4 0.2
v 0.1 0.4 0.1
v 0.1 0.4 -0.1
v 0.1 0.4 -0.2
v 0.1 0.7 0.1
v 0.1 0.7 -0.1
v 0.1 0.8 0.1
v 0.1 0.8 -0.1
v 0.1 0.9 0.1
v 0.1 0.9 -0.1
v 0.2 -0.6 0.2
v 0.2 -0.6 0.1
v 0.2 -0.6 -0.1
v 0.2 -0.6 -0.2
v 0.2 -0.3 0.2
v 0.2 -0.3 0.1
v 0.2 -0.3 -0.1
v 0.2 -0.3 -0.2
v 0.2 -5.96046e-008 0.2
v 0.2 -5.96046e-008 0.1
v 0.2 -5.96046e-008 -0.1
v 0.2 -5.96046e-008 -0.2
v 0.2 0.1 0.2
v 0.2 0.1 0.1
v 0.2 0.1 -0.1
v 0.2 0.1 -0.2
v 0.2 0.2 0.2
v 0.2 0.2 0.1
v 0.2 0.2 -0.1
v 0.2 0.2 -0.2
v 0.2 0.4 0.1
v 0.2 0.4 -0.1
v 0.3 -0.6 0.1
v 0.3 -0.6 -0.1
v 0.3 -0.3 0.1
v 0.3 -0.3 -0.1
v 0.3 -5.96046e-008 0.1
v 0.3 -5.96046e-008 -0.1
v 0.3 0.1 0.1
v 0.3 0.1 -0.1
v 0.3 0.2 0.1
v 0.3 0.2 -0.1
v -0.1 -0.6 0.3
v -0.1 -0.3 0.3
v -0.1 -5.96046e-008 0.3
v -0.1 0.1 0.3
v -0.1 0.2 0.3
v 0.1 -0.6 0.3
v 0.1 -0.3 0.3
v 0.1 -5.96046e-008 0.3
v 0.1 0.1 0.3
v 0.1 0.2 0.3
v -0.2 -0.6 0.2
v -0.2 -0.3 0.2
v -0.2 -5.96046e-008 0.2
v -0.2 0.1 0.2
v -0.2 0.2 0.2
v -0.1 -0.6 0.2
v -0.1 -0.3 0.2
v -0.1 -5.96046e-008 0.2
v -0.1 0.1 0.2
v -0.1 0.2 0.2
v -0.1 0.4 0.2
v 0.1 -0.6 0.2
v 0.1 -0.3 0.2
v 0.1 -5.96046e-008 0.2
v 0.1 0.1 0.2
v 0.1 0.2 0.2
v 0.1 0.4 0.2
v 0.2 -0.6 0.2
v 0.2 -0.3 0.2
v 0.2 -5.96046e-008 0.2
v 0.2 0.1 0.2
v 0.2 0.2 0.2
v -0.3 -0.6 0.1
v -0.3 -0.3 0.1
v -0.3 -5.96046e-008 0.1
v -0.3 0.1 0.1
v -0.3 0.2 0.1
v -0.2 -0.6 0.1
v -0.2 -0.3 0.1
v -0.2 -5.96046e-008 0.1
v -0.2 0.1 0.1
v -0.2 0.2 0.1
v -0.2 0.4 0.1
v -0.1 0.2 0.1
v -0.1 0.4 0.1
v -0.1 0.7 0.1
v -0.1 0.8 0.1
v -0.1 0.9 0.1
v 0.1 0.2 0.1
v 0.1 0.4 0.1
v 0.1 0.7 0.1
v 0.1 0.8 0.1
v 0.1 0.9 0.1
v 0.2 -0.6 0.1
v 0.2 -0.3 0.1
v 0.2 -5.96046e-008 0.1
v 0.2 0.1 0.1
v 0.2 0.2 0.1
v 0.2 0.4 0.1
v 0.3 -0.6 0.1
v 0.3 -0.3 0.1
v 0.3 -5.96046e-008 0.1
v 0.3 0.1 0.1
v 0.3 0.2 0.1
v -0.3 -0.6 -0.1
v -0.3 -0.3 -0.1
v -0.3 -5.96046e-008 -0.1
v -0.3 0.1 -0.1
v -0.3 0.2 -0.1
v -0.2 -0.6 -0.1
v -0.2 -0.3 -0.1
v -0.2 -5.96046e-008 -0.1
v -0.2 0.1 -0.1
v -0.2 0.2 -0.1
v -0.2 0.4 -0.1
v -0.1 0.2 -0.1
v -0.1 0.4 -0.1
v -0.1 0.7 -0.1
v -0.1 0.8 -0.1
v -0.1 0.9 -0.1
v 0.1 0.2 -0.1
v 0.1 0.4 -0.1
v 0.1 0.7 -0.1
v 0.1 0.8 -0.1
v 0.1 0.9 -0.1
v 0.2 -0.6 -0.1
v 0.2 -0.3 -0.1
v 0.2 -5.96046e-008 -0.1
v 0.2 0.1 -0.1
v 0.2 0.2 -0.1
v 0.2 0.4 -0.1
v 0.3 -0.6 -0.1
v 0.3 -0.3 -0.1
v 0.3 -5.96046e-008 -0.1
v 0.3 0.1 -0.1
v 0.3 0.2 -0.1
v -0.2 -0.6 -0.2
v -0.2 -0.3 -0.2
v -0.2 -5.96046e-008 -0.2
v -0.2 0.1 -0.2
v -0.2 0.2 -0.2
v -0.1 -0.6 -0.2
v -0.1 -0.3 -0.2
v -0.1 -5.96046e-008 -0.2
v -0.1 0.1 -0.2
v -0.1 0.2 -0.2
v -0.1 0.4 -0.2
v 0.1 -0.6 -0.2
v 0.1 -0.3 -0.2
v 0.1 -5.96046e-008 -0.2
v 0.1 0.1 -0.2
v 0.1 0.2 -0.2
v 0.1 0.4 -0.2
v 0.2 -0.6 -0.2
v 0.2 -0.3 -0.2
v 0.2 -5.96046e-008 -0.2
v 0.2 0.1 -0.2
v 0.2 0.2 -0.2
v -0.1 -0.6 -0.3
v -0.1 -0.3 -0.3
v -0.1 -5.96046e-008 -0.3
v -0.1 0.1 -0.3
v -0.1 0.2 -0.3
v 0.1 -0.6 -0.3
v 0.1 -0.3 -0.3
v 0.1 -5.96046e-008 -0.3
v 0.1 0.1 -0.3
v 0.1 0.2 -0.3
v -0.1 -0.6 0.3
v 0.1 -0.6 0.3
v -0.2 -0.6 0.2
v -0.1 -0.6 0.2
v 0.1 -0.6 0.2
v 0.2 -0.6 0.2
v -0.3 -0.6 0.1
v -0.2 -0.6 0.1
v 0.2 -0.6 0.1
v 0.3 -0.6 0.1
v -0.3 -0.6 -0.1
v -0.2 -0.6 -0.1
v 0.2 -0.6 -0.1
v 0.3 -0.6 -0.1
v -0.2 -0.6 -0.2
v -0.1 -0.6 -0.2
v 0.1 -0.6 -0.2
v 0.2 -0.6 -0.2
v -0.1 -0.6 -0.3
v 0.1 -0.6 -0.3
v -0.1 0.2 0.3
v 0.1 0.2 0.3
v -0.2 0.2 0.2
v -0.1 0.2 0.2
v 0.1 0.2 0.2
v 0.2 0.2 0.2
v -0.3 0.2 0.1
v -0.2 0.2 0.1
v -0.1 0.2 0.1
v 0.1 0.2 0.1
v 0.2 0.2 0.1
v 0.3 0.2 0.1
v -0.3 0.2 -0.1
v -0.2 0.2 -0.1
v -0.1 0.2 -0.1
v 0.1 0.2 -0.1
v 0.2 0.2 -0.1
v 0.3 0.2 -0.1
v -0.2 0.2 -0.2
v -0.1 0.2 -0.2
v 0.1 0.2 -0.2
v 0.2 0.2 -0.2
v -0.1 0.2 -0.3
v 0.1 0.2 -0.3
v -0.1 0.4 0.2
v 0.1 0.4 0.2
v -0.2 0.4 0.1
v -0.1 0.4 0.1
v 0.1 0.4 0.1
v 0.2 0.4 0.1
v -0.2 0.4 -0.1
v -0.1 0.4 -0.1
v 0.1 0.4 -0.1
v 0.2 0.4 -0.1
v -0.1 0.4 -0.2
v 0.1 0.4 -0.2
v -0.1 0.9 0.1
v 0.1 0.9 0.1
v -0.1 0.9 -0.1
v 0.1 0.9 -0.1

# faces
f 3/2/1 2/2/1 1/2/1
f 4/2/1 2/2/1 3/2/1
f 5/3/1 4/3/1 3/3/1
f 6/3/1 4/3/1 5/3/1
f 7/4/1 6/4/1 5/4/1
f 8/4/1 6/4/1 7/4/1
f 9/2/1 8/2/1 7/2/1
f 10/2/1 8/2/1 9/2/1
f 15/2/1 12/2/1 11/2/1
f 16/2/1 12/2/1 15/2/1
f 17/2/1 14/2/1 13/2/1
f 18/2/1 14/2/1 17/2/1
f 19/3/1 16/3/1 15/3/1
f 20/3/1 16/3/1 19/3/1
f 21/3/1 18/3/1 17/3/1
f 22/3/1 18/3/1 21/3/1
f 23/4/1 20/4/1 19/4/1
f 24/4/1 20/4/1 23/4/1
f 25/4/1 22/4/1 21/4/1
f 26/4/1 22/4/1 25/4/1
f 27/2/1 24/2/1 23/2/1
f 28/2/1 24/2/1 27/2/1
f 29/2/1 26/2/1 25/2/1
f 30/2/1 26/2/1 29/2/1
f 31/2/1 29/2/1 28/2/1
f 32/2/1 29/2/1 31/2/1
f 37/2/1 34/2/1 33/2/1
f 38/2/1 34/2/1 37/2/1
f 39/2/1 36/2/1 35/2/1
f 40/2/1 36/2/1 39/2/1
f 41/3/1 38/3/1 37/3/1
f 42/3/1 38/3/1 41/3/1
f 43/3/1 40/3/1 39/3/1
f 44/3/1 40/3/1 43/3/1
f 45/4/1 42/4/1 41/4/1
f 46/4/1 42/4/1 45/4/1
f 47/4/1 44/4/1 43/4/1
f 48/4/1 44/4/1 47/4/1
f 49/2/1 46/2/1 45/2/1
f 50/2/1 46/2/1 49/2/1
f 53/2/1 48/2/1 47/2/1
f 54/2/1 48/2/1 53/2/1
f 55/2/1 51/2/1 50/2/1
f 56/2/1 51/2/1 55/2/1
f 57/2/1 53/2/1 52/2/1
f 58/2/1 53/2/1 57/2/1
f 59/2/1 57/2/1 56/2/1
f 60/2/1 57/2/1 59/2/1
f 61/4/1 60/4/1 59/4/1
f 62/4/1 60/4/1 61/4/1
f 63/1/1 62/1/1 61/1/1
f 64/1/1 62/1/1 63/1/1
f 65/2/2 66/2/2 69/2/2
f 69/2/2 66/2/2 70/2/2
f 67/2/2 68/2/2 71/2/2
f 71/2/2 68/2/2 72/2/2
f 69/3/2 70/3/2 73/3/2
f 73/3/2 70/3/2 74/3/2
f 71/3/2 72/3/2 75/3/2
f 75/3/2 72/3/2 76/3/2
f 73/4/2 74/4/2 77/4/2
f 77/4/2 74/4/2 78/4/2
f 75/4/2 76/4/2 79/4/2
f 79/4/2 76/4/2 80/4/2
f 77/2/2 78/2/2 81/2/2
f 81/2/2 78/2/2 82/2/2
f 79/2/2 80/2/2 85/2/2
f 85/2/2 80/2/2 86/2/2
f 82/2/2 83/2/2 87/2/2
f 87/2/2 83/2/2 88/2/2
f 84/2/2 85/2/2 89/2/2
f 89/2/2 85/2/2 90/2/2
f 88/2/2 89/2/2 91/2/2
f 91/2/2 89/2/2 92/2/2
f 91/4/2 92/4/2 93/4/2
f 93/4/2 92/4/2 94/4/2
f 93/1/2 94/1/2 95/1/2
f 95/1/2 94/1/2 96/1/2
f 97/2/2 98/2/2 101/2/2
f 101/2/2 98/2/2 102/2/2
f 99/2/2 100/2/2 103/2/2
f 103/2/2 100/2/2 104/2/2
f 101/3/2 102/3/2 105/3/2
f 105/3/2 102/3/2 106/3/2
f 103/3/2 104/3/2 107/3/2
f 107/3/2 104/3/2 108/3/2
f 105/4/2 106/4/2 109/4/2
f 109/4/2 106/4/2 110/4/2
f 107/4/2 108/4/2 111/4/2
f 111/4/2 108/4/2 112/4/2
f 109/2/2 110/2/2 113/2/2
f 113/2/2 110/2/2 114/2/2
f 111/2/2 112/2/2 115/2/2
f 115/2/2 112/2/2 116/2/2
f 114/2/2 115/2/2 117/2/2
f 117/2/2 115/2/2 118/2/2
f 119/2/2 120/2/2 121/2/2
f 121/2/2 120/2/2 122/2/2
f 121/3/2 122/3/2 123/3/2
f 123/3/2 122/3/2 124/3/2
f 123/4/2 124/4/2 125/4/2
f 125/4/2 124/4/2 126/4/2
f 125/2/2 126/2/2 127/2/2
f 127/2/2 126/2/2 128/2/2
f 134/2/3 130/2/3 129/2/3
f 135/3/3 131/3/3 130/3/3
f 135/2/3 130/2/3 134/2/3
f 136/4/3 132/4/3 131/4/3
f 136/3/3 131/3/3 135/3/3
f 137/2/3 133/2/3 132/2/3
f 137/4/3 132/4/3 136/4/3
f 138/2/3 133/2/3 137/2/3
f 144/2/3 140/2/3 139/2/3
f 145/3/3 141/3/3 140/3/3
f 145/2/3 140/2/3 144/2/3
f 146/4/3 142/4/3 141/4/3
f 146/3/3 141/3/3 145/3/3
f 147/2/3 143/2/3 142/2/3
f 147/4/3 142/4/3 146/4/3
f 148/2/3 143/2/3 147/2/3
f 154/2/3 149/2/3 148/2/3
f 155/2/3 149/2/3 154/2/3
f 156/2/3 151/2/3 150/2/3
f 157/3/3 152/3/3 151/3/3
f 157/2/3 151/2/3 156/2/3
f 158/4/3 153/4/3 152/4/3
f 158/3/3 152/3/3 157/3/3
f 159/2/3 154/2/3 153/2/3
f 159/4/3 153/4/3 158/4/3
f 160/2/3 154/2/3 159/2/3
f 166/2/3 162/2/3 161/2/3
f 167/3/3 163/3/3 162/3/3
f 167/2/3 162/2/3 166/2/3
f 168/4/3 164/4/3 163/4/3
f 168/3/3 163/3/3 167/3/3
f 169/2/3 165/2/3 164/2/3
f 169/4/3 164/4/3 168/4/3
f 170/2/3 165/2/3 169/2/3
f 172/2/3 171/2/3 170/2/3
f 173/2/3 171/2/3 172/2/3
f 178/2/3 174/2/3 173/2/3
f 179/4/3 175/4/3 174/4/3
f 179/2/3 174/2/3 178/2/3
f 180/1/3 176/1/3 175/1/3
f 180/4/3 175/4/3 179/4/3
f 181/1/3 176/1/3 180/1/3
f 186/2/3 178/2/3 177/2/3
f 187/2/3 178/2/3 186/2/3
f 188/2/3 183/2/3 182/2/3
f 189/3/3 184/3/3 183/3/3
f 189/2/3 183/2/3 188/2/3
f 190/4/3 185/4/3 184/4/3
f 190/3/3 184/3/3 189/3/3
f 191/2/3 186/2/3 185/2/3
f 191/4/3 185/4/3 190/4/3
f 192/2/3 186/2/3 191/2/3
f 193/2/4 194/2/4 198/2/4
f 194/3/4 195/3/4 199/3/4
f 198/2/4 194/2/4 199/2/4
f 195/4/4 196/4/4 200/4/4
f 199/3/4 195/3/4 200/3/4
f 196/2/4 197/2/4 201/2/4
f 200/4/4 196/4/4 201/4/4
f 201/2/4 197/2/4 202/2/4
f 202/2/4 203/2/4 204/2/4
f 204/2/4 203/2/4 205/2/4
f 205/2/4 206/2/4 210/2/4
f 206/4/4 207/4/4 211/4/4
f 210/2/4 206/2/4 211/2/4
f 207/1/4 208/1/4 212/1/4
f 211/4/4 207/4/4 212/4/4
f 212/1/4 208/1/4 213/1/4
f 209/2/4 210/2/4 218/2/4
f 218/2/4 210/2/4 219/2/4
f 214/2/4 215/2/4 220/2/4
f 215/3/4 216/3/4 221/3/4
f 220/2/4 215/2/4 221/2/4
f 216/4/4 217/4/4 222/4/4
f 221/3/4 216/3/4 222/3/4
f 217/2/4 218/2/4 223/2/4
f 222/4/4 217/4/4 223/4/4
f 223/2/4 218/2/4 224/2/4
f 225/2/4 226/2/4 230/2/4
f 226/3/4 227/3/4 231/3/4
f 230/2/4 226/2/4 231/2/4
f 227/4/4 228/4/4 232/4/4
f 231/3/4 227/3/4 232/3/4
f 228/2/4 229/2/4 233/2/4
f 232/4/4 228/4/4 233/4/4
f 233/2/4 229/2/4 234/2/4
f 234/2/4 235/2/4 240/2/4
f 240/2/4 235/2/4 241/2/4
f 236/2/4 237/2/4 242/2/4
f 237/3/4 238/3/4 243/3/4
f 242/2/4 237/2/4 243/2/4
f 238/4/4 239/4/4 244/4/4
f 243/3/4 238/3/4 244/3/4
f 239/2/4 240/2/4 245/2/4
f 244/4/4 239/4/4 245/4/4
f 245/2/4 240/2/4 246/2/4
f 247/2/4 248/2/4 252/2/4
f 248/3/4 249/3/4 253/3/4
f 252/2/4 248/2/4 253/2/4
f 249/4/4 250/4/4 254/4/4
f 253/3/4 249/3/4 254/3/4
f 250/2/4 251/2/4 255/2/4
f 254/4/4 250/4/4 255/4/4
f 255/2/4 251/2/4 256/2/4
f 260/2/5 258/2/5 257/2/5
f 261/2/5 258/2/5 260/2/5
f 264/2/5 260/2/5 259/2/5
f 264/2/5 262/2/5 261/2/5
f 264/2/5 261/2/5 260/2/5
f 265/2/5 262/2/5 264/2/5
f 267/2/5 264/2/5 263/2/5
f 267/2/5 266/2/5 265/2/5
f 267/2/5 265/2/5 264/2/5
f 268/2/5 266/2/5 267/2/5
f 269/2/5 266/2/5 268/2/5
f 270/2/5 266/2/5 269/2/5
f 271/2/5 269/2/5 268/2/5
f 272/2/5 269/2/5 271/2/5
f 273/2/5 269/2/5 272/2/5
f 274/2/5 269/2/5 273/2/5
f 275/2/5 273/2/5 272/2/5
f 276/2/5 273/2/5 275/2/5
f 277/2/6 278/2/6 280/2/6
f 280/2/6 278/2/6 281/2/6
f 279/2/6 280/2/6 284/2/6
f 284/2/6 280/2/6 285/2/6
f 281/2/6 282/2/6 286/2/6
f 286/2/6 282/2/6 287/2/6
f 283/2/6 284/2/6 289/2/6
f 289/2/6 284/2/6 290/2/6
f 287/2/6 288/2/6 293/2/6
f 293/2/6 288/2/6 294/2/6
f 290/2/6 291/2/6 295/2/6
f 295/2/6 291/2/6 296/2/6
f 292/2/6 293/2/6 297/2/6
f 297/2/6 293/2/6 298/2/6
f 296/2/6 297/2/6 299/2/6
f 299/2/6 297/2/6 300/2/6
f 301/2/6 302/2/6 304/2/6
f 304/2/6 302/2/6 305/2/6
f 303/2/6 304/2/6 307/2/6
f 307/2/6 304/2/6 308/2/6
f 305/2/6 306/2/6 309/2/6
f 309/2/6 306/2/6 310/2/6
f 308/2/6 309/2/6 311/2/6
f 311/2/6 309/2/6 312/2/6
f 313/1/6 314/1/6 315/1/6
f 315/1/6 314/1/6 316/1/6
