# MagicaVoxel @ Ephtracy

# group
o 

# material
mtllib smokeysam_arm.mtl
usemtl palette

# normals
vn -1 0 0
vn 1 0 0
vn 0 0 1
vn 0 0 -1
vn 0 -1 0
vn 0 1 0

# texcoords
vt 0.224609 0.5
vt 0.943359 0.5
vt 0.947266 0.5

# verts
v 0 2 0
v 0 2 -0.1
v 0 2.1 0
v 0 2.1 -0.1
v 0 2.2 0
v 0 2.2 -0.1
v 0 2.3 0
v 0 2.3 -0.1
v 0 2.4 0
v 0 2.4 -0.1
v 0 2.5 0
v 0 2.5 -0.1
v 0.1 2 0
v 0.1 2 -0.1
v 0.1 2.1 0
v 0.1 2.1 -0.1
v 0.1 2.2 0
v 0.1 2.2 -0.1
v 0.1 2.3 0
v 0.1 2.3 -0.1
v 0.1 2.4 0
v 0.1 2.4 -0.1
v 0.1 2.5 0
v 0.1 2.5 -0.1
v 0 2 0
v 0 2.1 0
v 0 2.2 0
v 0 2.3 0
v 0 2.4 0
v 0 2.5 0
v 0.1 2 0
v 0.1 2.1 0
v 0.1 2.2 0
v 0.1 2.3 0
v 0.1 2.4 0
v 0.1 2.5 0
v 0 2 -0.1
v 0 2.1 -0.1
v 0 2.2 -0.1
v 0 2.3 -0.1
v 0 2.4 -0.1
v 0 2.5 -0.1
v 0.1 2 -0.1
v 0.1 2.1 -0.1
v 0.1 2.2 -0.1
v 0.1 2.3 -0.1
v 0.1 2.4 -0.1
v 0.1 2.5 -0.1
v 0 2 0
v 0.1 2 0
v 0 2 -0.1
v 0.1 2 -0.1
v 0 2.5 0
v 0.1 2.5 0
v 0 2.5 -0.1
v 0.1 2.5 -0.1

# faces
f 3/1/1 2/1/1 1/1/1
f 4/1/1 2/1/1 3/1/1
f 5/2/1 4/2/1 3/2/1
f 6/2/1 4/2/1 5/2/1
f 7/3/1 6/3/1 5/3/1
f 8/3/1 6/3/1 7/3/1
f 9/2/1 8/2/1 7/2/1
f 10/2/1 8/2/1 9/2/1
f 11/3/1 10/3/1 9/3/1
f 12/3/1 10/3/1 11/3/1
f 13/1/2 14/1/2 15/1/2
f 15/1/2 14/1/2 16/1/2
f 15/2/2 16/2/2 17/2/2
f 17/2/2 16/2/2 18/2/2
f 17/3/2 18/3/2 19/3/2
f 19/3/2 18/3/2 20/3/2
f 19/2/2 20/2/2 21/2/2
f 21/2/2 20/2/2 22/2/2
f 21/3/2 22/3/2 23/3/2
f 23/3/2 22/3/2 24/3/2
f 31/1/3 26/1/3 25/1/3
f 32/2/3 27/2/3 26/2/3
f 32/1/3 26/1/3 31/1/3
f 33/3/3 28/3/3 27/3/3
f 33/2/3 27/2/3 32/2/3
f 34/2/3 29/2/3 28/2/3
f 34/3/3 28/3/3 33/3/3
f 35/3/3 30/3/3 29/3/3
f 35/2/3 29/2/3 34/2/3
f 36/3/3 30/3/3 35/3/3
f 37/1/4 38/1/4 43/1/4
f 38/2/4 39/2/4 44/2/4
f 43/1/4 38/1/4 44/1/4
f 39/3/4 40/3/4 45/3/4
f 44/2/4 39/2/4 45/2/4
f 40/2/4 41/2/4 46/2/4
f 45/3/4 40/3/4 46/3/4
f 41/3/4 42/3/4 47/3/4
f 46/2/4 41/2/4 47/2/4
f 47/3/4 42/3/4 48/3/4
f 51/1/5 50/1/5 49/1/5
f 52/1/5 50/1/5 51/1/5
f 53/3/6 54/3/6 55/3/6
f 55/3/6 54/3/6 56/3/6
