# MagicaVoxel @ Ephtracy

# group
o 

# material
mtllib backpack.mtl
usemtl palette

# normals
vn -1 0 0
vn 1 0 0
vn 0 0 1
vn 0 0 -1
vn 0 -1 0
vn 0 1 0

# texcoords
vt 0.208984 0.5
vt 0.865234 0.5
vt 0.869141 0.5

# verts
v -0.2 -0.3 0.1
v -0.2 -0.3 -0.2
v -0.2 -0.1 0.2
v -0.2 -0.1 0.1
v -0.2 0.1 0.1
v -0.2 0.1 0
v -0.2 0.1 -0.1
v -0.2 0.2 0.1
v -0.2 0.2 0
v -0.2 0.3 0.2
v -0.2 0.3 -0.1
v -0.2 0.3 -0.2
v -0.1 -0.2 0.2
v -0.1 -0.2 0.1
v -0.1 -0.2 -0.2
v -0.1 -0.2 -0.3
v -0.1 -0.1 0.2
v -0.1 -0.1 0.1
v -0.1 0 -0.2
v -0.1 0 -0.3
v -0.1 0.1 -0.2
v -0.1 0.1 -0.3
v -0.1 0.3 -0.2
v -0.1 0.3 -0.3
v 0.2 -0.1 0.2
v 0.2 -0.1 0.1
v 0.2 0.1 0.1
v 0.2 0.1 0
v 0.2 0.1 -0.1
v 0.2 0.2 0.1
v 0.2 0.2 0
v 0.2 0.3 0.2
v 0.2 0.3 -0.1
v -0.1 -0.1 0.2
v -0.1 -0.1 0.1
v -0.1 0.1 0.1
v -0.1 0.1 0
v -0.1 0.1 -0.1
v -0.1 0.2 0.1
v -0.1 0.2 0
v -0.1 0.3 0.2
v -0.1 0.3 -0.1
v 0.2 -0.2 0.2
v 0.2 -0.2 0.1
v 0.2 -0.2 -0.2
v 0.2 -0.2 -0.3
v 0.2 -0.1 0.2
v 0.2 -0.1 0.1
v 0.2 0 -0.2
v 0.2 0 -0.3
v 0.2 0.1 -0.2
v 0.2 0.1 -0.3
v 0.2 0.3 -0.2
v 0.2 0.3 -0.3
v 0.3 -0.3 0.1
v 0.3 -0.3 -0.2
v 0.3 -0.1 0.2
v 0.3 -0.1 0.1
v 0.3 0.1 0.1
v 0.3 0.1 0
v 0.3 0.1 -0.1
v 0.3 0.2 0.1
v 0.3 0.2 0
v 0.3 0.3 0.2
v 0.3 0.3 -0.1
v 0.3 0.3 -0.2
v -0.2 -0.1 0.2
v -0.2 0.3 0.2
v -0.1 -0.2 0.2
v -0.1 -0.1 0.2
v -0.1 0.3 0.2
v 0.2 -0.2 0.2
v 0.2 -0.1 0.2
v 0.2 0.3 0.2
v 0.3 -0.1 0.2
v 0.3 0.3 0.2
v -0.2 -0.3 0.1
v -0.2 -0.1 0.1
v -0.1 -0.2 0.1
v -0.1 -0.1 0.1
v -0.1 0.1 0.1
v 0.2 -0.2 0.1
v 0.2 -0.1 0.1
v 0.2 0.1 0.1
v 0.3 -0.3 0.1
v 0.3 -0.1 0.1
v -0.2 0.1 0
v -0.2 0.2 0
v -0.1 0.1 0
v -0.1 0.2 0
v 0.2 0.1 0
v 0.2 0.2 0
v 0.3 0.1 0
v 0.3 0.2 0
v -0.1 0.1 -0.1
v -0.1 0.3 -0.1
v 0.2 0.1 -0.1
v 0.2 0.3 -0.1
v -0.2 0.1 0.1
v -0.2 0.2 0.1
v -0.1 0.1 0.1
v -0.1 0.2 0.1
v 0.2 0.1 0.1
v 0.2 0.2 0.1
v 0.3 0.1 0.1
v 0.3 0.2 0.1
v -0.2 -0.3 -0.2
v -0.2 0.3 -0.2
v -0.1 -0.2 -0.2
v -0.1 0 -0.2
v -0.1 0.1 -0.2
v -0.1 0.3 -0.2
v 0.2 -0.2 -0.2
v 0.2 0 -0.2
v 0.2 0.1 -0.2
v 0.2 0.3 -0.2
v 0.3 -0.3 -0.2
v 0.3 0.3 -0.2
v -0.1 -0.2 -0.3
v -0.1 0 -0.3
v -0.1 0.1 -0.3
v -0.1 0.3 -0.3
v 0.2 -0.2 -0.3
v 0.2 0 -0.3
v 0.2 0.1 -0.3
v 0.2 0.3 -0.3
v -0.2 -0.3 0.1
v 0.3 -0.3 0.1
v -0.2 -0.3 -0.2
v 0.3 -0.3 -0.2
v -0.1 -0.2 0.2
v 0.2 -0.2 0.2
v -0.1 -0.2 0.1
v 0.2 -0.2 0.1
v -0.1 -0.2 -0.2
v 0.2 -0.2 -0.2
v -0.1 -0.2 -0.3
v 0.2 -0.2 -0.3
v -0.2 -0.1 0.2
v -0.1 -0.1 0.2
v 0.2 -0.1 0.2
v 0.3 -0.1 0.2
v -0.2 -0.1 0.1
v -0.1 -0.1 0.1
v 0.2 -0.1 0.1
v 0.3 -0.1 0.1
v -0.2 0.2 0.1
v -0.1 0.2 0.1
v 0.2 0.2 0.1
v 0.3 0.2 0.1
v -0.2 0.2 0
v -0.1 0.2 0
v 0.2 0.2 0
v 0.3 0.2 0
v -0.1 -0.1 0.2
v 0.2 -0.1 0.2
v -0.1 -0.1 0.1
v 0.2 -0.1 0.1
v -0.2 0.1 0.1
v -0.1 0.1 0.1
v 0.2 0.1 0.1
v 0.3 0.1 0.1
v -0.2 0.1 0
v -0.1 0.1 0
v 0.2 0.1 0
v 0.3 0.1 0
v -0.1 0.1 -0.1
v 0.2 0.1 -0.1
v -0.2 0.3 0.2
v -0.1 0.3 0.2
v 0.2 0.3 0.2
v 0.3 0.3 0.2
v -0.2 0.3 -0.1
v -0.1 0.3 -0.1
v 0.2 0.3 -0.1
v 0.3 0.3 -0.1
v -0.2 0.3 -0.2
v -0.1 0.3 -0.2
v 0.2 0.3 -0.2
v 0.3 0.3 -0.2
v -0.1 0.3 -0.3
v 0.2 0.3 -0.3

# faces
f 4/2/1 2/2/1 1/2/1
f 5/2/1 2/2/1 4/2/1
f 5/3/1 4/3/1 3/3/1
f 6/2/1 2/2/1 5/2/1
f 7/2/1 2/2/1 6/2/1
f 8/3/1 5/3/1 3/3/1
f 9/3/1 7/3/1 6/3/1
f 10/3/1 8/3/1 3/3/1
f 10/3/1 9/3/1 8/3/1
f 11/2/1 2/2/1 7/2/1
f 11/3/1 9/3/1 10/3/1
f 11/3/1 7/3/1 9/3/1
f 12/2/1 2/2/1 11/2/1
f 17/3/1 14/3/1 13/3/1
f 18/3/1 14/3/1 17/3/1
f 19/3/1 16/3/1 15/3/1
f 20/3/1 16/3/1 19/3/1
f 21/1/1 20/1/1 19/1/1
f 22/1/1 20/1/1 21/1/1
f 23/2/1 22/2/1 21/2/1
f 24/2/1 22/2/1 23/2/1
f 27/3/1 26/3/1 25/3/1
f 30/3/1 27/3/1 25/3/1
f 31/3/1 29/3/1 28/3/1
f 32/3/1 30/3/1 25/3/1
f 32/3/1 31/3/1 30/3/1
f 33/3/1 29/3/1 31/3/1
f 33/3/1 31/3/1 32/3/1
f 34/3/2 35/3/2 36/3/2
f 34/3/2 36/3/2 39/3/2
f 37/3/2 38/3/2 40/3/2
f 34/3/2 39/3/2 41/3/2
f 39/3/2 40/3/2 41/3/2
f 40/3/2 38/3/2 42/3/2
f 41/3/2 40/3/2 42/3/2
f 43/3/2 44/3/2 47/3/2
f 47/3/2 44/3/2 48/3/2
f 45/3/2 46/3/2 49/3/2
f 49/3/2 46/3/2 50/3/2
f 49/1/2 50/1/2 51/1/2
f 51/1/2 50/1/2 52/1/2
f 51/2/2 52/2/2 53/2/2
f 53/2/2 52/2/2 54/2/2
f 55/2/2 56/2/2 58/2/2
f 58/2/2 56/2/2 59/2/2
f 57/3/2 58/3/2 59/3/2
f 59/2/2 56/2/2 60/2/2
f 60/2/2 56/2/2 61/2/2
f 57/3/2 59/3/2 62/3/2
f 60/3/2 61/3/2 63/3/2
f 57/3/2 62/3/2 64/3/2
f 62/3/2 63/3/2 64/3/2
f 61/2/2 56/2/2 65/2/2
f 64/3/2 63/3/2 65/3/2
f 63/3/2 61/3/2 65/3/2
f 65/2/2 56/2/2 66/2/2
f 70/3/3 68/3/3 67/3/3
f 71/3/3 68/3/3 70/3/3
f 72/3/3 70/3/3 69/3/3
f 73/3/3 70/3/3 72/3/3
f 75/3/3 74/3/3 73/3/3
f 76/3/3 74/3/3 75/3/3
f 79/2/3 78/2/3 77/2/3
f 80/2/3 78/2/3 79/2/3
f 82/2/3 79/2/3 77/2/3
f 83/2/3 81/2/3 80/2/3
f 84/2/3 81/2/3 83/2/3
f 85/2/3 82/2/3 77/2/3
f 85/2/3 83/2/3 82/2/3
f 86/2/3 83/2/3 85/2/3
f 89/3/3 88/3/3 87/3/3
f 90/3/3 88/3/3 89/3/3
f 93/3/3 92/3/3 91/3/3
f 94/3/3 92/3/3 93/3/3
f 97/2/3 96/2/3 95/2/3
f 98/2/3 96/2/3 97/2/3
f 99/3/4 100/3/4 101/3/4
f 101/3/4 100/3/4 102/3/4
f 103/3/4 104/3/4 105/3/4
f 105/3/4 104/3/4 106/3/4
f 107/2/4 108/2/4 109/2/4
f 109/2/4 108/2/4 110/2/4
f 110/2/4 108/2/4 111/2/4
f 111/2/4 108/2/4 112/2/4
f 107/2/4 109/2/4 113/2/4
f 107/2/4 113/2/4 117/2/4
f 115/2/4 116/2/4 117/2/4
f 114/2/4 115/2/4 117/2/4
f 113/2/4 114/2/4 117/2/4
f 117/2/4 116/2/4 118/2/4
f 119/3/4 120/3/4 123/3/4
f 120/1/4 121/1/4 124/1/4
f 123/3/4 120/3/4 124/3/4
f 121/2/4 122/2/4 125/2/4
f 124/1/4 121/1/4 125/1/4
f 125/2/4 122/2/4 126/2/4
f 129/2/5 128/2/5 127/2/5
f 130/2/5 128/2/5 129/2/5
f 133/3/5 132/3/5 131/3/5
f 134/3/5 132/3/5 133/3/5
f 137/3/5 136/3/5 135/3/5
f 138/3/5 136/3/5 137/3/5
f 143/3/5 140/3/5 139/3/5
f 144/3/5 140/3/5 143/3/5
f 145/3/5 142/3/5 141/3/5
f 146/3/5 142/3/5 145/3/5
f 151/3/5 148/3/5 147/3/5
f 152/3/5 148/3/5 151/3/5
f 153/3/5 150/3/5 149/3/5
f 154/3/5 150/3/5 153/3/5
f 155/3/6 156/3/6 157/3/6
f 157/3/6 156/3/6 158/3/6
f 159/2/6 160/2/6 163/2/6
f 161/2/6 162/2/6 163/2/6
f 160/2/6 161/2/6 163/2/6
f 163/2/6 162/2/6 164/2/6
f 164/2/6 162/2/6 165/2/6
f 165/2/6 162/2/6 166/2/6
f 164/2/6 165/2/6 167/2/6
f 167/2/6 165/2/6 168/2/6
f 169/3/6 170/3/6 173/3/6
f 173/3/6 170/3/6 174/3/6
f 171/3/6 172/3/6 175/3/6
f 175/3/6 172/3/6 176/3/6
f 173/2/6 174/2/6 177/2/6
f 174/2/6 175/2/6 177/2/6
f 175/2/6 176/2/6 177/2/6
f 177/2/6 176/2/6 178/2/6
f 178/2/6 176/2/6 179/2/6
f 179/2/6 176/2/6 180/2/6
f 178/2/6 179/2/6 181/2/6
f 181/2/6 179/2/6 182/2/6
