# MagicaVoxel @ Ephtracy

# group
o 

# material
mtllib ducky.mtl
usemtl palette

# normals
vn -1 0 0
vn 1 0 0
vn 0 0 1
vn 0 0 -1
vn 0 -1 0
vn 0 1 0

# texcoords
vt 0.724609 0.5
vt 0.857422 0.5

# verts
v -0.1 -0.2 0.1
v -0.1 -0.2 -0.2
v -0.1 0 0.1
v -0.1 0 -0.2
v 0 0 0
v 0 0 -0.2
v 0 0 -0.3
v 0 0.1 -0.2
v 0 0.1 -0.3
v 0 0.2 0
v 0 0.2 -0.2
v 0.1 0 0
v 0.1 0 -0.2
v 0.1 0 -0.3
v 0.1 0.1 -0.2
v 0.1 0.1 -0.3
v 0.1 0.2 0
v 0.1 0.2 -0.2
v 0.2 -0.2 0.1
v 0.2 -0.2 -0.2
v 0.2 0 0.1
v 0.2 0 -0.2
v -0.1 -0.2 0.1
v -0.1 0 0.1
v 0.2 -0.2 0.1
v 0.2 0 0.1
v 0 0 0
v 0 0.2 0
v 0.1 0 0
v 0.1 0.2 0
v -0.1 -0.2 -0.2
v -0.1 0 -0.2
v 0 0 -0.2
v 0 0.1 -0.2
v 0 0.2 -0.2
v 0.1 0 -0.2
v 0.1 0.1 -0.2
v 0.1 0.2 -0.2
v 0.2 -0.2 -0.2
v 0.2 0 -0.2
v 0 0 -0.3
v 0 0.1 -0.3
v 0.1 0 -0.3
v 0.1 0.1 -0.3
v -0.1 -0.2 0.1
v 0.2 -0.2 0.1
v -0.1 -0.2 -0.2
v 0.2 -0.2 -0.2
v 0 0 -0.2
v 0.1 0 -0.2
v 0 0 -0.3
v 0.1 0 -0.3
v -0.1 0 0.1
v 0.2 0 0.1
v 0 0 0
v 0.1 0 0
v -0.1 0 -0.2
v 0 0 -0.2
v 0.1 0 -0.2
v 0.2 0 -0.2
v 0 0.1 -0.2
v 0.1 0.1 -0.2
v 0 0.1 -0.3
v 0.1 0.1 -0.3
v 0 0.2 0
v 0.1 0.2 0
v 0 0.2 -0.2
v 0.1 0.2 -0.2

# faces
f 3/1/1 2/1/1 1/1/1
f 4/1/1 2/1/1 3/1/1
f 8/1/1 6/1/1 5/1/1
f 8/2/1 7/2/1 6/2/1
f 9/2/1 7/2/1 8/2/1
f 10/1/1 8/1/1 5/1/1
f 11/1/1 8/1/1 10/1/1
f 12/1/2 13/1/2 15/1/2
f 13/2/2 14/2/2 15/2/2
f 15/2/2 14/2/2 16/2/2
f 12/1/2 15/1/2 17/1/2
f 17/1/2 15/1/2 18/1/2
f 19/1/2 20/1/2 21/1/2
f 21/1/2 20/1/2 22/1/2
f 25/1/3 24/1/3 23/1/3
f 26/1/3 24/1/3 25/1/3
f 29/1/3 28/1/3 27/1/3
f 30/1/3 28/1/3 29/1/3
f 31/1/4 32/1/4 33/1/4
f 31/1/4 33/1/4 36/1/4
f 34/1/4 35/1/4 37/1/4
f 37/1/4 35/1/4 38/1/4
f 31/1/4 36/1/4 39/1/4
f 39/1/4 36/1/4 40/1/4
f 41/2/4 42/2/4 43/2/4
f 43/2/4 42/2/4 44/2/4
f 47/1/5 46/1/5 45/1/5
f 48/1/5 46/1/5 47/1/5
f 51/2/5 50/2/5 49/2/5
f 52/2/5 50/2/5 51/2/5
f 53/1/6 54/1/6 55/1/6
f 55/1/6 54/1/6 56/1/6
f 53/1/6 55/1/6 57/1/6
f 57/1/6 55/1/6 58/1/6
f 56/1/6 54/1/6 59/1/6
f 59/1/6 54/1/6 60/1/6
f 61/2/6 62/2/6 63/2/6
f 63/2/6 62/2/6 64/2/6
f 65/1/6 66/1/6 67/1/6
f 67/1/6 66/1/6 68/1/6
