# MagicaVoxel @ Ephtracy

# group
o 

# material
mtllib notebook.mtl
usemtl palette

# normals
vn -1 0 0
vn 1 0 0
vn 0 0 1
vn 0 0 -1
vn 0 -1 0
vn 0 1 0

# texcoords
vt 0.857422 0.5
vt 0.861328 0.5
vt 0.966797 0.5

# verts
v -0.2 -0.2 0.2
v -0.2 -0.2 0
v -0.2 -0.2 -0.3
v -0.2 -0.2 -0.4
v -0.2 0.1 0.2
v -0.2 0.1 0
v -0.2 0.1 -0.3
v -0.2 0.1 -0.4
v 0.2 -0.2 0.2
v 0.2 -0.2 0
v 0.2 -0.2 -0.3
v 0.2 -0.2 -0.4
v 0.2 -0.1 0.2
v 0.2 -0.1 0
v 0.2 -0.1 -0.3
v 0.2 -0.1 -0.4
v 0.2 0 0.2
v 0.2 0 0
v 0.2 0 -0.3
v 0.2 0 -0.4
v 0.2 0.1 0.2
v 0.2 0.1 0
v 0.2 0.1 -0.3
v 0.2 0.1 -0.4
v 0.3 -0.1 0
v 0.3 -0.1 -0.3
v 0.3 0 0
v 0.3 0 -0.3
v -0.2 -0.2 0.2
v -0.2 0.1 0.2
v -0.1 -0.1 0.2
v -0.1 0 0.2
v 0.2 -0.2 0.2
v 0.2 -0.1 0.2
v 0.2 0 0.2
v 0.2 0.1 0.2
v 0.2 -0.1 0
v 0.2 0 0
v 0.3 -0.1 0
v 0.3 0 0
v 0.2 -0.1 -0.3
v 0.2 0 -0.3
v 0.3 -0.1 -0.3
v 0.3 0 -0.3
v -0.2 -0.2 -0.4
v -0.2 0.1 -0.4
v -0.1 -0.1 -0.4
v -0.1 0 -0.4
v 0.2 -0.2 -0.4
v 0.2 -0.1 -0.4
v 0.2 0 -0.4
v 0.2 0.1 -0.4
v -0.2 -0.2 0.2
v 0.2 -0.2 0.2
v -0.2 -0.2 0
v 0.2 -0.2 0
v -0.2 -0.2 -0.3
v 0.2 -0.2 -0.3
v -0.2 -0.2 -0.4
v 0.2 -0.2 -0.4
v 0.2 -0.1 0
v 0.3 -0.1 0
v 0.2 -0.1 -0.3
v 0.3 -0.1 -0.3
v 0.2 0 0
v 0.3 0 0
v 0.2 0 -0.3
v 0.3 0 -0.3
v -0.2 0.1 0.2
v 0.2 0.1 0.2
v -0.2 0.1 0
v 0.2 0.1 0
v -0.1 0.1 -0.1
v 0.1 0.1 -0.1
v -0.1 0.1 -0.2
v 0.1 0.1 -0.2
v -0.2 0.1 -0.3
v 0.2 0.1 -0.3
v -0.2 0.1 -0.4
v 0.2 0.1 -0.4

# faces
f 5/1/1 2/1/1 1/1/1
f 6/2/1 3/2/1 2/2/1
f 6/1/1 2/1/1 5/1/1
f 7/1/1 4/1/1 3/1/1
f 7/2/1 3/2/1 6/2/1
f 8/1/1 4/1/1 7/1/1
f 9/1/2 10/1/2 13/1/2
f 10/2/2 11/2/2 14/2/2
f 13/1/2 10/1/2 14/1/2
f 11/1/2 12/1/2 15/1/2
f 14/2/2 11/2/2 15/2/2
f 15/1/2 12/1/2 16/1/2
f 13/3/2 14/3/2 17/3/2
f 17/3/2 14/3/2 18/3/2
f 15/3/2 16/3/2 19/3/2
f 19/3/2 16/3/2 20/3/2
f 17/1/2 18/1/2 21/1/2
f 18/2/2 19/2/2 22/2/2
f 21/1/2 18/1/2 22/1/2
f 19/1/2 20/1/2 23/1/2
f 22/2/2 19/2/2 23/2/2
f 23/1/2 20/1/2 24/1/2
f 25/2/2 26/2/2 27/2/2
f 27/2/2 26/2/2 28/2/2
f 31/1/3 30/1/3 29/1/3
f 32/1/3 30/1/3 31/1/3
f 33/1/3 31/1/3 29/1/3
f 34/3/3 32/3/3 31/3/3
f 34/1/3 31/1/3 33/1/3
f 35/1/3 30/1/3 32/1/3
f 35/3/3 32/3/3 34/3/3
f 36/1/3 30/1/3 35/1/3
f 39/2/3 38/2/3 37/2/3
f 40/2/3 38/2/3 39/2/3
f 41/2/4 42/2/4 43/2/4
f 43/2/4 42/2/4 44/2/4
f 45/1/4 46/1/4 47/1/4
f 47/1/4 46/1/4 48/1/4
f 45/1/4 47/1/4 49/1/4
f 47/3/4 48/3/4 50/3/4
f 49/1/4 47/1/4 50/1/4
f 48/1/4 46/1/4 51/1/4
f 50/3/4 48/3/4 51/3/4
f 51/1/4 46/1/4 52/1/4
f 55/1/5 54/1/5 53/1/5
f 56/1/5 54/1/5 55/1/5
f 57/2/5 56/2/5 55/2/5
f 58/2/5 56/2/5 57/2/5
f 59/1/5 58/1/5 57/1/5
f 60/1/5 58/1/5 59/1/5
f 63/2/5 62/2/5 61/2/5
f 64/2/5 62/2/5 63/2/5
f 65/2/6 66/2/6 67/2/6
f 67/2/6 66/2/6 68/2/6
f 69/1/6 70/1/6 71/1/6
f 71/1/6 70/1/6 72/1/6
f 71/2/6 72/2/6 73/2/6
f 73/2/6 72/2/6 74/2/6
f 71/2/6 73/2/6 75/2/6
f 73/3/6 74/3/6 75/3/6
f 74/2/6 72/2/6 76/2/6
f 75/3/6 74/3/6 76/3/6
f 71/2/6 75/2/6 77/2/6
f 75/2/6 76/2/6 77/2/6
f 76/2/6 72/2/6 78/2/6
f 77/2/6 76/2/6 78/2/6
f 77/1/6 78/1/6 79/1/6
f 79/1/6 78/1/6 80/1/6
